<svg xmlns="http://www.w3.org/2000/svg" width="160" height="320" viewBox="0 0 160 320" fill="none" role="img" aria-labelledby="title desc">
  <title id="title">ANF3 mint laboratory record binder</title>
  <desc id="desc">A stylized matte mint ring binder for Building 16, designed for the ANF3 digital cabinet.</desc>
  <defs>
    <linearGradient id="edge" x1="0" y1="0" x2="1" y2="0"><stop stop-color="#49B58F"/><stop offset="0.18" stop-color="#63D3AB"/><stop offset="0.84" stop-color="#63D3AB"/><stop offset="1" stop-color="#3CA67F"/></linearGradient>
    <filter id="shadow" x="-30%" y="-20%" width="160%" height="160%"><feDropShadow dx="0" dy="8" stdDeviation="7" flood-color="#18392E" flood-opacity="0.22"/></filter>
  </defs>
  <g filter="url(#shadow)">
    <path d="M28 11H135C143.284 11 150 17.716 150 26V292C150 300.284 143.284 307 135 307H28C18.059 307 10 298.941 10 289V29C10 19.059 18.059 11 28 11Z" fill="url(#edge)"/>
    <path d="M22 18H32V300H22C16.477 300 12 295.523 12 290V28C12 22.477 16.477 18 22 18Z" fill="#329773" fill-opacity="0.62"/>
    <path d="M32 17H35V301H32V17Z" fill="#C5F5E4" fill-opacity="0.42"/>
    <path d="M134 16H139C143.418 16 147 19.582 147 24V294C147 298.418 143.418 302 139 302H134V16Z" fill="#258A65" fill-opacity="0.30"/>
    <rect x="44" y="54" width="84" height="151" rx="5" fill="#F9FCFB" stroke="#D6E4DF"/>
    <rect x="50" y="62" width="72" height="9" rx="2" fill="#DFECE7"/>
    <rect x="50" y="84" width="52" height="5" rx="2.5" fill="#354A43"/>
    <rect x="50" y="95" width="66" height="5" rx="2.5" fill="#354A43" fill-opacity="0.66"/>
    <rect x="50" y="106" width="58" height="5" rx="2.5" fill="#354A43" fill-opacity="0.42"/>
    <path d="M50 130H122" stroke="#D7E3DF"/>
    <rect x="50" y="145" width="42" height="5" rx="2.5" fill="#63D3AB"/>
    <rect x="50" y="156" width="61" height="5" rx="2.5" fill="#354A43" fill-opacity="0.38"/>
    <rect x="50" y="177" width="34" height="15" rx="3" fill="#E7F8F2"/>
    <circle cx="86" cy="249" r="18" fill="#E9F0ED" stroke="#AFBDB8" stroke-width="2"/>
    <circle cx="86" cy="249" r="10" fill="#83968F"/>
    <circle cx="86" cy="249" r="6" fill="#F2F7F5"/>
    <path d="M19 28C19 23.582 22.582 20 27 20" stroke="#D0F8EA" stroke-width="2" stroke-linecap="round" opacity="0.72"/>
  </g>
</svg>
